<svg xmlns="http://www.w3.org/2000/svg" version="1.1" xmlns:xlink="http://www.w3.org/1999/xlink" xmlns:svgjs="http://svgjs.dev/svgjs" width="1000" height="625" viewBox="0 0 1000 625"><g transform="matrix(1,0,0,1,0,0)"><svg viewBox="0 0 512 320" data-background-color="#0b7285" preserveAspectRatio="xMidYMid meet" height="625" width="1000" xmlns="http://www.w3.org/2000/svg" xmlns:xlink="http://www.w3.org/1999/xlink"><defs></defs><g id="tight-bounds" transform="matrix(1,0,0,1,0,0)"><svg viewBox="0 0 512 320" height="320" width="512"><g><svg></svg></g><g><svg viewBox="0 0 512 320" height="320" width="512"><g><path d="M96 160c0-88.366 71.634-160 160-160 88.366 0 160 71.634 160 160 0 88.366-71.634 160-160 160-88.366 0-160-71.634-160-160z" fill="#ffffff" data-fill-palette-color="tertiary"></path></g><g transform="matrix(1,0,0,1,153.6,113.7249838605552)"><svg viewBox="0 0 204.8 92.5500322788896" height="92.5500322788896" width="204.8"><g><svg viewBox="0 0 204.8 92.5500322788896" height="92.5500322788896" width="204.8"><g><svg viewBox="0 0 204.80000000000004 92.55003227888962" height="92.5500322788896" width="204.8"><g><svg viewBox="0 0 204.80000000000004 92.55003227888962" height="92.55003227888962" width="204.80000000000004"><g><svg viewBox="0 0 204.80000000000004 92.55003227888962" height="92.55003227888962" width="204.80000000000004"><g><svg viewBox="0 0 204.80000000000004 92.55003227888962" height="92.55003227888962" width="204.80000000000004"><g transform="matrix(1,0,0,1,0,0)"><svg width="204.80000000000004" viewBox="4.349999904632568 -35 77.45000457763672 35" height="92.55003227888962" data-palette-color="#0b7285"><path d="M8.15 0L5.5 0Q4.95 0 4.65-0.33 4.35-0.65 4.35-1.15L4.35-1.15 4.35-33.85Q4.35-34.35 4.65-34.68 4.95-35 5.5-35L5.5-35 8.15-35Q8.7-35 9-34.68 9.3-34.35 9.3-33.85L9.3-33.85 9.3-1.15Q9.3-0.65 9-0.33 8.7 0 8.15 0L8.15 0ZM21.7 0L19.15 0Q18.6 0 18.3-0.33 18-0.65 18-1.15L18-1.15 18-33.8Q18-34.35 18.3-34.68 18.6-35 19.15-35L19.15-35 31.35-35Q37-35 40.3-32.35 43.6-29.7 43.6-24.5L43.6-24.5Q43.6-20.65 41.67-18.23 39.75-15.8 36.45-14.85L36.45-14.85 44.15-1.55Q44.3-1.25 44.3-1L44.3-1Q44.3-0.6 43.97-0.3 43.65 0 43.25 0L43.25 0 40.85 0Q40 0 39.6-0.45 39.2-0.9 38.9-1.35L38.9-1.35 31.65-14.05 22.9-14.05 22.9-1.15Q22.9-0.65 22.57-0.33 22.25 0 21.7 0L21.7 0ZM22.9-30.8L22.9-18.3 31.15-18.3Q34.9-18.3 36.75-19.88 38.6-21.45 38.6-24.55L38.6-24.55Q38.6-27.6 36.77-29.2 34.95-30.8 31.15-30.8L31.15-30.8 22.9-30.8ZM54.35 0L51.9 0Q51.4 0 51.07-0.33 50.75-0.65 50.75-1.15L50.75-1.15 50.75-33.8Q50.75-34.35 51.07-34.68 51.4-35 51.9-35L51.9-35 54.4-35Q55-35 55.3-34.7 55.6-34.4 55.7-34.2L55.7-34.2 66.25-14 76.9-34.2Q77-34.4 77.27-34.7 77.55-35 78.15-35L78.15-35 80.59-35Q81.15-35 81.47-34.68 81.8-34.35 81.8-33.8L81.8-33.8 81.8-1.15Q81.8-0.65 81.47-0.33 81.15 0 80.59 0L80.59 0 78.15 0Q77.65 0 77.32-0.33 77-0.65 77-1.15L77-1.15 77-25.75 68.65-9.45Q68.45-8.95 68.05-8.68 67.65-8.4 67.05-8.4L67.05-8.4 65.5-8.4Q64.84-8.4 64.5-8.68 64.15-8.95 63.9-9.45L63.9-9.45 55.5-25.75 55.5-1.15Q55.5-0.65 55.17-0.33 54.85 0 54.35 0L54.35 0Z" opacity="1" transform="matrix(1,0,0,1,0,0)" fill="#0b7285" class="undefined-text-0" data-fill-palette-color="quaternary" id="text-0"></path></svg></g></svg></g></svg></g></svg></g></svg></g></svg></g></svg></g></svg></g></svg><rect width="512" height="320" fill="none" stroke="none" visibility="hidden"></rect></g></svg></g></svg>