<svg xmlns="http://www.w3.org/2000/svg" version="1.1" xmlns:xlink="http://www.w3.org/1999/xlink" xmlns:svgjs="http://svgjs.dev/svgjs" width="128" height="128" viewBox="0 0 128 128"><g transform="matrix(0.8046875,0,0,0.8046875,12.5,12.5)"><svg viewBox="0 0 200 200" data-background-color="#0b7285" preserveAspectRatio="xMidYMid meet" height="128" width="128" xmlns="http://www.w3.org/2000/svg" xmlns:xlink="http://www.w3.org/1999/xlink"><g id="tight-bounds" transform="matrix(1,0,0,1,0,0)"><svg viewBox="0 0 200 200" height="200" width="200"><g><svg></svg></g><g><svg viewBox="0 0 200 200" height="200" width="200"><g><path d="M0 100c0-55.228 44.772-100 100-100 55.228 0 100 44.772 100 100 0 55.228-44.772 100-100 100-55.228 0-100-44.772-100-100z" fill="#ffffff" fill-rule="nonzero" stroke="none" stroke-width="1" stroke-linecap="butt" stroke-linejoin="miter" stroke-miterlimit="10" stroke-dasharray="" stroke-dashoffset="0" font-family="none" font-weight="none" font-size="none" text-anchor="none" style="mix-blend-mode: normal" data-fill-palette-color="tertiary"></path></g><g transform="matrix(1,0,0,1,95.62985714285715,69.1)"><svg viewBox="0 0 8.740285714285713 61.8" height="61.8" width="8.740285714285713"><g><svg viewBox="0 0 8.740285714285713 61.8" height="61.8" width="8.740285714285713"><g><svg viewBox="0 0 8.740285714285713 61.8" height="61.8" width="8.740285714285713"><g><svg viewBox="0 0 8.740285714285713 61.8" height="61.8" width="8.740285714285713"><g><svg viewBox="0 0 8.740285714285713 61.8" height="61.8" width="8.740285714285713"><g transform="matrix(1,0,0,1,0,0)"><svg width="8.740285714285713" viewBox="4.35 -35 4.950000000000001 35" height="61.8" data-palette-color="#0b7285"><path d="M8.15 0L5.5 0Q4.95 0 4.65-0.33 4.35-0.65 4.35-1.15L4.35-1.15 4.35-33.85Q4.35-34.35 4.65-34.68 4.95-35 5.5-35L5.5-35 8.15-35Q8.7-35 9-34.68 9.3-34.35 9.3-33.85L9.3-33.85 9.3-1.15Q9.3-0.65 9-0.33 8.7 0 8.15 0L8.15 0Z" opacity="1" transform="matrix(1,0,0,1,0,0)" fill="#000000" class="undefined-text-0" data-fill-palette-color="quaternary" id="text-0"></path></svg></g></svg></g></svg></g></svg></g></svg></g></svg></g></svg></g><defs></defs></svg><rect width="200" height="200" fill="none" stroke="none" visibility="hidden"></rect></g></svg></g></svg>